<?xml version="1.0" encoding="utf-8"?>
<svg
	height="800px"
	width="800px"
	version="1.1" 
	viewBox="0 0 512.001 512.001"
	xml:space="preserve"
	xmlns="http://www.w3.org/2000/svg"
	xmlns:xlink="http://www.w3.org/1999/xlink">
	<defs>
		<linearGradient
			id="gradient-1"
			x1="0%"
			x2="100%"
			y1="50%"
			y2="50%">
			<stop
				offset="0%"
				stop-color="rgb(147, 197, 253)"
				/>
			<stop
				offset="25%"
				stop-color="rgb(255, 237, 213)"
				/>
			<stop
				offset="50%"
				stop-color="rgb(243, 244, 246)"
				/>
			<stop
				offset="75%"
				stop-color="rgb(100, 116, 139)"
				/>
			<stop
				offset="100%"
				stop-color="rgb(180, 83, 9)"
				/>
			<stop
				offset="100%"
				stop-color="rgb(192, 38, 211)"
				/>
			<stop
				offset="100%"
				stop-color="rgb(217, 119, 6)"
				/>			
		</linearGradient>
		<linearGradient
			id="gradient-2"
			x1="0%"
			x2="100%"
			y1="50%"
			y2="50%">
			<stop
				offset="0%"
				stop-color="rgb(127, 29, 29)"
				/>
			<stop
				offset="25%"
				stop-color="rgb(38, 38, 38)"
				/>
			<stop
				offset="50%"
				stop-color="rgb(22, 163, 74)"
				/>
			<stop
				offset="75%"
				stop-color="rgb(21, 94, 117)"
				/>
			<stop
				offset="100%"
				stop-color="rgb(113, 63, 18)"
				/>
			<stop
				offset="100%"
				stop-color="rgb(191, 219, 254)"
				/>
			<stop
				offset="100%"
				stop-color="rgb(239, 68, 68)"
				/>			
		</linearGradient>
	</defs>
	<g
		fill="url(#gradient-1)"
		>
		<path
			d="
				M256.001,0
				C128.437,0,24.655,103.782,24.655,231.346
				c0,64.519,27.02,126.113,74.303,169.847
				L78.095,501.299
				c-0.546,2.619,0.117,5.344,1.804,7.42
				c1.689,2.075,4.221,3.281,6.895,3.281
				h258.084
				c4.909,0,8.887-3.979,8.887-8.887
				c0-4.908-3.978-8.887-8.887-8.887
				H97.724
				l18.245-87.549
				h280.068
				l18.244,87.548
				h-39.778
				c-4.909,0-8.887,3.979-8.887,8.887
				s3.978,8.887,8.887,8.887
				h50.709
				c2.676,0,5.208-1.205,6.896-3.281
				c1.687-2.075,2.35-4.8,1.804-7.42
				l-20.868-100.137
				c14.9-13.78,27.941-29.406,38.763-46.561
				c2.619-4.151,1.376-9.64-2.775-12.259
				c-4.155-2.619-9.641-1.377-12.26,2.775
				c-10.199,16.169-22.536,30.868-36.655,43.784
				H287.994
				V296.45
				c24.006-11.845,40.563-36.572,40.563-65.102
				c0-9.454-1.793-18.651-5.329-27.338
				c-1.851-4.547-7.035-6.732-11.581-4.882
				c-4.547,1.851-6.732,7.036-4.881,11.582
				c2.665,6.549,4.017,13.493,4.017,20.638
				c0,30.208-24.576,54.783-54.782,54.783
				c-30.208,0-54.783-24.576-54.783-54.783
				c0-30.208,24.576-54.783,54.783-54.783
				c12.722,0,24.655,4.23,34.508,12.233
				c3.812,3.096,9.408,2.513,12.503-1.295
				c3.094-3.81,2.513-9.408-1.296-12.502
				c-12.87-10.453-29.107-16.211-45.715-16.211
				c-40.009,0-72.558,32.549-72.558,72.558
				s32.551,72.558,72.558,72.558
				c4.866,0,9.619-0.489,14.219-1.408
				v86.405
				h-28.437
				v-69.778
				c0-4.908-3.978-8.887-8.887-8.887
				s-8.887,3.979-8.887,8.887
				v69.778
				h-112.15
				c-44.162-40.42-69.429-97.62-69.429-157.555
				c0-117.765,95.808-213.573,213.573-213.573
				c117.763,0,213.57,95.808,213.57,213.571
				c0,31.159-6.557,61.191-19.488,89.256
				c-2.054,4.458-0.105,9.737,4.352,11.791
				c4.46,2.055,9.738,0.104,11.791-4.352
				c14.015-30.415,21.12-62.949,21.12-96.695
				C487.346,103.782,383.565,0,256.001,0z"/>
	</g>
	<g
		fill="url(#gradient-2)"
		>
		<path
			d="
				M300.342,49.331
				c-3.472-3.471-9.098-3.471-12.569,0
				l-22.885,22.885
				V49.236
				c0-4.908-3.978-8.887-8.887-8.887
				c-4.909,0-8.887,3.979-8.887,8.887
				v44.429
				c0,0.004,0,0.008,0,0.012
				v44.429
				c0,4.908,3.978,8.887,8.887,8.887
				s8.887-3.979,8.887-8.887
				V97.353
				l35.454-35.454
				C303.813,58.428,303.813,52.801,300.342,49.331z
			"/>
	</g>
	<g
		fill="white"
		>
		<path
			d="
				M402.261,108.515
				c-3.156-3.759-8.763-4.247-12.521-1.09
				l-37.502,31.495
				l-4.166-72.215
				c-0.281-4.9-4.504-8.65-9.384-8.36
				c-4.901,0.282-8.645,4.484-8.361,9.384
				l4.93,85.452
				l-13.571,11.397
				c-3.759,3.156-4.247,8.762-1.09,12.521
				c1.757,2.094,4.274,3.172,6.81,3.172
				c2.017,0,4.046-0.683,5.711-2.082
				l68.054-57.153
				C404.93,117.878,405.418,112.272,402.261,108.515z
			"/>
	</g>
	<g
		fill="white"
		>
		<path
			d="
				M193.596,288.103
				c-3.303-3.631-8.924-3.897-12.555-0.595
				l-24.74,22.501
				l-30.779-22.761
				c-3.944-2.917-9.51-2.086-12.429,1.862
				c-2.919,3.947-2.086,9.512,1.862,12.431
				l27.941,20.663
				l-27.6,25.102
				c-3.63,3.301-3.896,8.922-0.595,12.554
				c1.754,1.928,4.162,2.908,6.578,2.908
				c2.134,0,4.274-0.764,5.977-2.313
				L193,300.658
				C196.631,297.355,196.897,291.735,193.596,288.103z
			"/>
	</g>
	<g
		fill="white"
		>
		<path
			d="
				M445.999,191.433
				c-3.471-3.471-9.097-3.472-12.569,0
				l-51.097,51.097
				l-32.856-5.25
				c-4.86-0.777-9.404,2.529-10.179,7.374
				c-0.774,4.847,2.528,9.404,7.374,10.178
				l87.757,14.021
				c0.475,0.076,0.947,0.113,1.413,0.113
				c4.291,0,8.067-3.114,8.765-7.487
				c0.774-4.847-2.528-9.404-7.374-10.178
				l-33.226-5.308
				l41.991-41.991
				C449.469,200.532,449.469,194.904,445.999,191.433z
			"/>
	</g>
	<g
		fill="white"
		>
		<path
			d="
				M399.018,344.436
				l-66.939-58.455
				c-3.696-3.228-9.309-2.849-12.541,0.848
				c-3.229,3.697-2.848,9.312,0.848,12.541
				l25.787,22.518
				l-6.77,33.054
				c-0.986,4.809,2.115,9.505,6.923,10.49
				c0.602,0.123,1.202,0.182,1.793,0.182
				c4.133,0,7.835-2.898,8.698-7.106
				l4.747-23.18
				l25.762,22.496
				c1.685,1.472,3.769,2.193,5.843,2.193
				c2.477,0,4.94-1.03,6.698-3.042
				C403.096,353.28,402.714,347.665,399.018,344.436z
			"/>
	</g>
	<g
		fill="white"
		>
		<path
			d="
				M165.559,206.995
				l-51.693-8.767
				l-13.07-53.348
				c-1.168-4.767-5.979-7.685-10.747-6.517
				c-4.766,1.168-7.685,5.979-6.516,10.747
				l11.241,45.879
				l-16.833-2.855
				c-4.835-0.816-9.427,2.438-10.248,7.277
				c-0.82,4.838,2.438,9.428,7.277,10.248
				l30.145,5.112
				c0.015,0.004,0.032,0.006,0.05,0.01
				l57.422,9.739
				c0.502,0.085,1.004,0.126,1.497,0.126
				c4.257,0,8.016-3.066,8.752-7.403
				C173.656,212.404,170.398,207.815,165.559,206.995z
			"/>
	</g>
	<g
		fill="white"
		>
		<path
			d="
				M100.336,268.621
				l-19.044-14.084
				c-3.942-2.916-9.511-2.086-12.429,1.862
				s-2.086,9.512,1.862,12.431
				l19.044,14.084
				c1.589,1.175,3.44,1.742,5.277,1.742
				c2.722,0,5.409-1.247,7.153-3.604
				C105.116,277.105,104.283,271.54,100.336,268.621z
			"/>
	</g>
	<g
		fill="white"
		>
		<path
			d="
				M194.59,129.501
				l16.282-74.642
				c1.046-4.796-1.993-9.531-6.789-10.577
				c-4.8-1.05-9.532,1.994-10.578,6.789
				l-12.832,58.827
				l-22.851-32.187
				c-2.839-4.002-8.389-4.944-12.391-2.101
				c-4.003,2.842-4.944,8.39-2.101,12.391
				l51.448,72.464
				c1.732,2.441,4.472,3.743,7.255,3.743
				c1.779,0,3.576-0.533,5.137-1.641
				c4.003-2.842,4.944-8.39,2.101-12.391
				L194.59,129.501z
			"/>
	</g>
</svg>