<?xml version="1.0" encoding="utf-8"?>
<svg
	height="800px"
	version="1.1"
	viewBox="0 0 512 512"
	xml:space="preserve"
	xmlns="http://www.w3.org/2000/svg"
	xmlns:xlink="http://www.w3.org/1999/xlink" 
	width="800px"
	>
	<defs>
		<linearGradient gradientTransform="rotate(150, 0.5, 0.5)" x1="50%" y1="0%" x2="50%" y2="100%" id="flux-gradient">
			<stop stop-color="hsl(315, 100%, 72%)" stop-opacity="1" offset="0%"></stop>
			<stop stop-color="hsl(227, 100%, 50%)" stop-opacity="1" offset="100%"></stop>
		</linearGradient>
		<filter id="flux-filter" x="-20%" y="-20%" width="140%" height="140%" filterUnits="objectBoundingBox" primitiveUnits="userSpaceOnUse" color-interpolation-filters="sRGB">
			<feTurbulence type="fractalNoise" baseFrequency="0.005 0.003" numOctaves="2" seed="2" stitchTiles="stitch" x="0%" y="0%" width="100%" height="100%" result="turbulence"/>
			<feGaussianBlur stdDeviation="20 0" x="0%" y="0%" width="100%" height="100%" in="turbulence" edgeMode="duplicate" result="blur"/>
			<feBlend mode="color-burn" x="0%" y="0%" width="100%" height="100%" in="SourceGraphic" in2="blur" result="blend"/>
		</filter>
	</defs>
	<path style="fill:#8ED7E0;" d="M408.555,403.184c47.779-42.218,77.904-103.954,77.904-172.725C486.46,103.181,383.279,0,256,0
		S25.54,103.181,25.54,230.46c0,68.771,30.126,130.507,77.904,172.725l152.559,54.26L408.555,403.184z"/>
		<g fill="url(#flux-gradient)">
		<path d="M364.673,345.197c34.036-30.074,55.495-74.052,55.495-123.041
			c0-90.668-73.501-164.169-164.168-164.169S91.831,131.488,91.831,222.156c0,48.989,21.46,92.967,55.495,123.041"/>
		</g>
	<polyline style="fill:#CCCCCC;" points="279.937,430.651 279.937,254.683 232.063,254.683 232.063,430.651 "/>
	<polyline style="fill:#B3B3B3;" points="253.548,430.651 253.548,254.683 232.063,254.683 232.063,430.651 "/>
	<path style="fill:#4EB79B;" d="M408.847,512H103.16c-11.58,0-20.233-10.642-17.87-21.979l18.158-87.132H408.56l18.158,87.132
		C429.08,501.358,420.426,512,408.847,512z"/>
	<path style="fill:#40A084;" d="M103.447,402.889L85.29,490.021C82.928,501.357,91.581,512,103.16,512h48.796l13.496-109.111
		L103.447,402.889L103.447,402.889z"/>
	<circle style="fill:#E88158;" cx="255.994" cy="230.46" r="65.961"/>
	<path style="fill:#D37250;" d="M255.999,296.424c-36.423,0-65.96-29.536-65.96-65.96c0-36.436,29.536-65.96,65.96-65.96
		c-17.395,0-31.488,29.524-31.488,65.96C224.511,266.888,238.604,296.424,255.999,296.424z"/>
	<g>
		<path style="fill:#5DACD8;" d="M329.975,177.547c2.089,0,4.191-0.707,5.916-2.157l70.502-59.209c3.894-3.27,4.4-9.078,1.129-12.971
			c-3.269-3.894-9.078-4.4-12.971-1.129l-38.85,32.627l-4.316-74.812c-0.291-5.076-4.666-8.962-9.721-8.661
			c-5.077,0.292-8.955,4.645-8.662,9.721l5.107,88.526l-14.059,11.807c-3.894,3.27-4.4,9.078-1.129,12.971
			C324.74,176.43,327.348,177.547,329.975,177.547z"/>
		<path style="fill:#5DACD8;" d="M404.162,347.617l-69.347-60.557c-3.829-3.344-9.644-2.951-12.992,0.879
			c-3.345,3.83-2.95,9.647,0.879,12.992l26.714,23.328l-7.013,34.243c-1.02,4.982,2.191,9.847,7.173,10.868
			c0.624,0.128,1.245,0.189,1.857,0.189c4.282,0,8.117-3.003,9.011-7.362l4.918-24.013l26.688,23.305
			c1.746,1.525,3.905,2.272,6.053,2.272c2.566,0,5.118-1.067,6.938-3.151C408.385,356.778,407.991,350.962,404.162,347.617z"/>
		<path style="fill:#5DACD8;" d="M178.345,288.641l-25.629,23.31l-77.708-57.466c-4.084-3.021-9.853-2.161-12.876,1.929
			s-2.161,9.854,1.929,12.878l74.768,55.292l-28.592,26.005c-3.761,3.421-4.038,9.244-0.617,13.007
			c1.817,1.997,4.311,3.013,6.814,3.013c2.211,0,4.428-0.792,6.192-2.396l68.109-61.945c3.761-3.421,4.038-9.244,0.617-13.007
			C187.93,285.495,182.106,285.22,178.345,288.641z"/>
		<path style="fill:#5DACD8;" d="M68.457,207.992l31.229,5.296c0.017,0.002,0.036,0.006,0.053,0.009l59.488,10.09
			c0.521,0.088,1.04,0.13,1.55,0.13c4.41,0,8.305-3.176,9.067-7.669c0.85-5.012-2.525-9.767-7.539-10.616l-53.552-9.082
			l-13.541-55.267c-1.21-4.939-6.195-7.961-11.133-6.752c-4.937,1.21-7.961,6.195-6.751,11.133l11.645,47.529l-17.438-2.957
			c-5.009-0.846-9.766,2.525-10.616,7.539C60.068,202.388,63.443,207.141,68.457,207.992z"/>
		<path style="fill:#5DACD8;" d="M288.915,41.897l-23.708,23.708V41.8c0-5.085-4.121-9.207-9.207-9.207
			c-5.086,0-9.207,4.122-9.207,9.207v46.027c0,0.004,0,0.009,0,0.012v46.027c0,5.085,4.121,9.207,9.207,9.207
			c5.086,0,9.207-4.122,9.207-9.207V91.647l36.729-36.729c3.596-3.596,3.596-9.426,0-13.02
			C298.34,38.301,292.51,38.301,288.915,41.897z"/>
		<path style="fill:#5DACD8;" d="M452.832,189.111c-3.596-3.596-9.424-3.597-13.021,0l-52.935,52.935l-34.038-5.438
			c-5.034-0.805-9.742,2.62-10.545,7.639c-0.802,5.021,2.618,9.742,7.639,10.544l90.913,14.525c0.492,0.079,0.981,0.117,1.463,0.117
			c4.445,0,8.358-3.226,9.081-7.756c0.802-5.021-2.618-9.742-7.639-10.544l-34.421-5.498l43.502-43.502
			C456.427,198.536,456.427,192.706,452.832,189.111z"/>
		<path style="fill:#5DACD8;" d="M202.216,36.668c-4.973-1.088-9.875,2.066-10.959,7.033l-13.294,60.942L154.29,71.298
			c-2.941-4.146-8.69-5.122-12.837-2.177c-4.147,2.944-5.122,8.691-2.177,12.837l53.298,75.07c1.795,2.529,4.633,3.878,7.515,3.878
			c1.843,0,3.705-0.552,5.322-1.7c4.147-2.944,5.122-8.691,2.177-12.837l-15.206-21.418l16.867-77.326
			C210.333,42.657,207.184,37.752,202.216,36.668z"/>
	</g>
</svg>